<svg width="75" height="75" viewBox="0 0 75 75" fill="none" xmlns="http://www.w3.org/2000/svg">
<rect width="75" height="75" rx="37.5" fill="#95FF00"/>
<path d="M29.459 31.8295C28.3252 31.1194 27.0098 30.7542 25.6727 30.7782C24.814 30.7778 23.9647 30.9573 23.1794 31.305C22.4123 31.6221 21.7124 32.0824 21.1172 32.6614C20.9105 32.8654 20.729 33.0934 20.5767 33.3408V31.0404H17.5V53.4908H20.5767V44.7424C20.6862 44.8663 20.7624 45.0046 20.9005 45.1452C21.5441 45.748 22.289 46.2322 23.1009 46.5755C24.1277 47.0169 25.2471 47.1995 26.3609 47.1071C27.4744 47.0161 28.5487 46.6535 29.4899 46.0511C30.6017 45.3338 31.5 44.3301 32.0903 43.1452C32.7378 41.8429 33.0644 40.4043 33.0429 38.9498C33.0701 37.4821 32.7373 36.0301 32.0737 34.721C31.475 33.5412 30.5723 32.5429 29.459 31.8295ZM29.459 41.6721C29.0703 42.4498 28.4797 43.1085 27.7492 43.5791C27.014 44.0468 26.158 44.2888 25.2869 44.2752C24.4065 44.286 23.5414 44.0444 22.7937 43.5791C22.0638 43.1084 21.474 42.4497 21.0863 41.6721C20.6647 40.8207 20.4455 39.8833 20.4457 38.9331C20.449 37.9822 20.6714 37.0449 21.0958 36.1941C21.4838 35.4142 22.0839 34.7598 22.827 34.3062C23.5702 33.8531 24.4264 33.62 25.2964 33.634C26.1732 33.623 27.0349 33.8629 27.7802 34.3253C28.5046 34.7878 29.0898 35.4387 29.4733 36.2085C29.8997 37.0546 30.1115 37.9928 30.09 38.9403C30.1027 39.8919 29.8759 40.8313 29.4304 41.6721H29.459Z" fill="black"/>
<path d="M48.4806 31.057H44.8181L41.2009 36.6279L36.9383 31.057H33.0425L39.1387 38.9235L33.0734 46.871H36.7383L40.9104 41.2381L45.2372 46.8853H49.0211L42.913 38.8543L48.4806 31.057Z" fill="black"/>
<path d="M54.4043 24.6068H51.3086V46.888H54.4043V24.6068Z" fill="black"/>
<path d="M54.4043 21.509V24.6046H57.4999V21.509H54.4043Z" fill="black"/>
</svg>
