<svg width="40" height="32" viewBox="0 0 40 32" fill="none" xmlns="http://www.w3.org/2000/svg">
<path d="M11.959 10.3297C10.8252 9.61967 9.50984 9.25447 8.17268 9.27845C7.31399 9.27806 6.46472 9.45751 5.67944 9.80527C4.9123 10.1223 4.21244 10.5827 3.61722 11.1616C3.41049 11.3656 3.229 11.5937 3.07666 11.841V9.54067H0V31.9911H3.07666V23.2426C3.1862 23.3666 3.2624 23.5048 3.40052 23.6455C4.04406 24.2483 4.78896 24.7325 5.60086 25.0757C6.62775 25.5172 7.74713 25.6997 8.86088 25.6073C9.97439 25.5163 11.0487 25.1538 11.9899 24.5513C13.1017 23.8341 14 22.8303 14.5903 21.6455C15.2378 20.3431 15.5644 18.9046 15.5429 17.45C15.5701 15.9823 15.2373 14.5303 14.5737 13.2212C13.975 12.0414 13.0723 11.0432 11.959 10.3297ZM11.959 20.1723C11.5703 20.95 10.9797 21.6087 10.2492 22.0793C9.51395 22.5471 8.65797 22.7891 7.78691 22.7754C6.90651 22.7862 6.0414 22.5447 5.29367 22.0793C4.56378 21.6087 3.97399 20.9499 3.58626 20.1723C3.16471 19.3209 2.94548 18.3836 2.94568 17.4334C2.94895 16.4825 3.17143 15.5451 3.59579 14.6944C3.98377 13.9145 4.58386 13.26 5.327 12.8064C6.07018 12.3533 6.92638 12.1203 7.79644 12.1342C8.6732 12.1233 9.53487 12.3631 10.2802 12.8255C11.0046 13.2881 11.5898 13.939 11.9733 14.7087C12.3997 15.5548 12.6115 16.493 12.59 17.4405C12.6027 18.3921 12.3759 19.3316 11.9304 20.1723H11.959Z" fill="#95FF00"/>
<path d="M30.9806 9.55713H27.3181L23.7009 15.128L19.4383 9.55713H15.5425L21.6387 17.4236L15.5734 25.3711H19.2383L23.4104 19.7382L27.7372 25.3854H31.5211L25.413 17.3545L30.9806 9.55713Z" fill="#95FF00"/>
<path d="M36.9043 3.10693H33.8086V25.3881H36.9043V3.10693Z" fill="#95FF00"/>
<path d="M36.9043 0.00927734V3.10489H39.9999V0.00927734H36.9043Z" fill="#95FF00"/>
</svg>
